<svg width="400" height="240" viewBox="0 0 400 240" xmlns="http://www.w3.org/2000/svg" role="img" aria-label="MediPay placeholder">
  <defs>
    <linearGradient id="medicalGradient" x1="0" y1="0" x2="1" y2="1">
      <stop offset="0%" stop-color="#22c55e" />
      <stop offset="100%" stop-color="#0ea5e9" />
    </linearGradient>
    <linearGradient id="cardSheen" x1="0" y1="0" x2="1" y2="0">
      <stop offset="0%" stop-color="#ffffff" stop-opacity="0.28" />
      <stop offset="100%" stop-color="#ffffff" stop-opacity="0.06" />
    </linearGradient>
  </defs>

  <rect width="400" height="240" rx="16" fill="url(#medicalGradient)"/>

  <g opacity="0.15">
    <circle cx="60" cy="50" r="4" fill="#fff" />
    <circle cx="120" cy="40" r="3" fill="#fff" />
    <circle cx="180" cy="60" r="4" fill="#fff" />
    <circle cx="240" cy="45" r="3" fill="#fff" />
    <circle cx="300" cy="58" r="4" fill="#fff" />
    <circle cx="340" cy="50" r="4" fill="#fff" />
  </g>

  <g transform="translate(32, 96)">
    <rect x="0" y="0" width="336" height="88" rx="12" fill="#0b1620" fill-opacity="0.18"/>
    <rect x="0" y="0" width="336" height="88" rx="12" fill="url(#cardSheen)"/>

    <g transform="translate(16, 18)">
      <rect x="0" y="0" width="44" height="44" rx="10" fill="#0ea5e9" />
      <path d="M12 24h20M22 14v20" stroke="#fff" stroke-width="2.5" stroke-linecap="round" />
    </g>

    <rect x="72" y="20" width="172" height="14" rx="7" fill="#ffffff" fill-opacity="0.86"/>
    <rect x="72" y="42" width="130" height="10" rx="5" fill="#ffffff" fill-opacity="0.5"/>
    <rect x="260" y="18" width="60" height="36" rx="9" fill="#22c55e" />
    <rect x="266" y="24" width="48" height="6" rx="3" fill="#fff" fill-opacity="0.8"/>
    <rect x="266" y="34" width="38" height="6" rx="3" fill="#fff" fill-opacity="0.5"/>
  </g>

  <text x="32" y="36" font-family="Poppins, system-ui, -apple-system, Segoe UI, Roboto, Ubuntu, Cantarell, Noto Sans, Helvetica Neue, Arial, sans-serif" font-size="16" fill="#ffffff" fill-opacity="0.95">MediPay Placeholder</text>
</svg>